<?xml version="1.0" encoding="UTF-8"?>
<svg id="Layer_1" data-name="Layer 1" xmlns="http://www.w3.org/2000/svg" viewBox="0 0 1695.39 448">
  <defs>
    <style>
      .cls-1 {
        fill: #f51e14;
      }

      .cls-2 {
        fill: #fff;
      }
    </style>
  </defs>
  <g>
    <path class="cls-2" d="M1305,247V94.03c0-16.9-13.7-30.6-30.59-30.6h-152.98c-16.9,0-30.6,13.7-30.6,30.6s13.7,30.6,30.6,30.6h79.11l-100.75,100.75c-11.95,11.95-11.95,31.32,0,43.27,11.95,11.95,31.32,11.95,43.27,0l100.75-100.75v79.11c0,16.9,13.7,30.6,30.6,30.6s30.59-13.7,30.59-30.6"/>
    <path class="cls-2" d="M1062.79,247.01V94.03c0-16.9-13.7-30.59-30.59-30.6-16.9,0-30.6,13.69-30.6,30.6v79.11l-100.75-100.75c-11.95-11.95-31.32-11.95-43.27,0-11.95,11.95-11.95,31.32,0,43.27l100.75,100.75h-79.11c-16.9,0-30.6,13.7-30.6,30.6,0,16.9,13.7,30.6,30.6,30.6h152.97c16.9,0,30.6-13.7,30.6-30.6"/>
    <path class="cls-2" d="M1540.16,247.01V94.03c0-16.9-13.7-30.59-30.6-30.59h-152.98c-16.9,0-30.6,13.69-30.6,30.59s13.7,30.6,30.6,30.6h122.38v122.38c0,16.9,13.7,30.6,30.6,30.6s30.6-13.7,30.6-30.6"/>
  </g>
  <path class="cls-1" d="M162.03,279.04c-8.82,0-15.63-2.46-20.44-7.36-4.81-4.91-7.21-11.77-7.21-20.59V89.69c0-9.21,2.4-16.18,7.21-20.89,4.81-4.71,11.62-7.06,20.44-7.06s15.88,2.36,20.59,7.06c4.71,4.71,7.06,11.67,7.06,20.89v65.52h.6l73.03-80.54c3.8-4.01,7.86-7.16,12.17-9.47,4.31-2.3,9.17-3.46,14.58-3.46,8.42,0,14.47,2.15,18.18,6.46,3.71,4.31,5.41,9.32,5.11,15.03-.3,5.71-2.66,10.97-7.06,15.78l-72.73,77.24v-22.54l76.34,86.26c5.21,5.81,7.81,11.77,7.81,17.88s-2.06,11.17-6.16,15.18c-4.11,4.01-10.17,6.01-18.18,6.01-6.81,0-12.28-1.35-16.38-4.06-4.11-2.71-8.57-6.76-13.37-12.17l-73.33-82.05h-.6v70.33c0,8.82-2.31,15.68-6.91,20.59-4.61,4.91-11.52,7.36-20.74,7.36Z"/>
  <path class="cls-1" d="M353.34,279.04c-8.82,0-15.63-2.46-20.44-7.36-4.81-4.91-7.21-11.87-7.21-20.89V89.99c0-9.21,2.4-16.23,7.21-21.04,4.81-4.81,11.62-7.21,20.44-7.21s15.88,2.4,20.59,7.21c4.71,4.81,7.06,11.82,7.06,21.04v160.79c0,9.02-2.31,15.98-6.91,20.89-4.61,4.91-11.52,7.36-20.74,7.36Z"/>
  <path class="cls-1" d="M726.07,279.64c-8.02,0-16.38-.55-25.1-1.65-8.72-1.1-16.98-2.75-24.79-4.96-7.81-2.2-14.83-4.81-21.04-7.81-5.41-2.6-9.22-6.06-11.42-10.37-2.21-4.31-3-8.87-2.4-13.67.6-4.81,2.3-9.06,5.11-12.77,2.8-3.71,6.51-6.21,11.12-7.51,4.61-1.3,9.82-.65,15.63,1.95,7.61,3.61,16.23,6.41,25.85,8.42,9.62,2,18.63,3,27.05,3,13.22,0,22.49-1.75,27.8-5.26,5.31-3.5,7.96-7.86,7.96-13.07,0-4.61-1.85-8.31-5.56-11.12-3.71-2.8-10.27-5.21-19.69-7.21l-35.16-7.51c-19.24-4.01-33.56-11.02-42.98-21.04-9.42-10.02-14.13-22.94-14.13-38.77,0-10.42,2.15-19.88,6.46-28.4,4.31-8.51,10.42-15.78,18.33-21.79,7.91-6.01,17.33-10.67,28.25-13.98,10.92-3.31,23.09-4.96,36.52-4.96,10.42,0,20.99,1.16,31.71,3.46,10.72,2.31,19.99,5.76,27.8,10.37,4.61,2.4,7.91,5.71,9.92,9.92,2,4.21,2.8,8.56,2.4,13.07-.4,4.51-1.95,8.47-4.66,11.87-2.7,3.41-6.31,5.66-10.82,6.76-4.51,1.1-9.87.35-16.08-2.25-5.81-2.6-12.37-4.56-19.68-5.86-7.32-1.3-14.38-1.95-21.19-1.95-7.42,0-13.73.86-18.93,2.55-5.21,1.7-9.17,4.16-11.87,7.36-2.7,3.21-4.06,6.91-4.06,11.12s1.75,7.77,5.26,10.67c3.5,2.91,9.97,5.36,19.38,7.36l34.86,7.51c19.43,4.21,33.96,11.12,43.58,20.74,9.62,9.62,14.43,22.14,14.43,37.57,0,10.42-2.11,19.84-6.31,28.25-4.21,8.41-10.22,15.58-18.03,21.49-7.81,5.91-17.24,10.47-28.25,13.67-11.02,3.2-23.44,4.81-37.27,4.81Z"/>
  <path class="cls-1" d="M1479.83,346.35c-12.72,0-23.03-10.31-23.03-23.03s10.31-23.03,23.03-23.03,23.03,10.31,23.03,23.03-10.31,23.03-23.03,23.03M1526.46,343.27c-11.02-6.36-14.79-20.45-8.43-31.47,6.36-11.01,20.45-14.79,31.46-8.43,11.02,6.36,14.79,20.45,8.43,31.46-6.36,11.02-20.45,14.79-31.46,8.43M1497.38,393.62c-11.02-6.36-14.79-20.45-8.43-31.46,6.36-11.02,20.45-14.79,31.47-8.43,11.01,6.36,14.79,20.45,8.43,31.46-6.36,11.02-20.45,14.79-31.47,8.43"/>
  <path class="cls-1" d="M635.5,123.32c13.89,71.69-28.63,119.67-135.3,152.12-30.73,9.01-46.83-.52-51.05-30.57l-17.73-128.3c-.83.16-1.52.45-2.22.58-22.09,6.16-33.59,1.69-36.61-13.88-2.88-14.87,4.91-24.23,24.52-30.5,20.86-6.53,39.05-11.07,57.86-14.71,97.65-18.92,148.2,1.56,160.54,65.27ZM570.01,130.9c-5.55-28.62-30.48-37.78-79.43-28.29l-3.23.63,30.32,94.87c40.12-14.61,58.16-37.18,52.34-67.2Z"/>
</svg>