<?xml version="1.0" encoding="UTF-8"?>
<svg id="Layer_1" xmlns="http://www.w3.org/2000/svg" version="1.1" viewBox="0 0 366.8 110.8">
  <!-- Generator: Adobe Illustrator 29.8.3, SVG Export Plug-In . SVG Version: 2.1.1 Build 3)  -->
  <defs>
    <style>
      .st0 {
        fill: #4dc5ea;
      }

      .st1 {
        fill: #fff;
      }
    </style>
  </defs>
  <g>
    <path class="st1" d="M283.5,62.2V14.8c0-5.2-4.2-9.5-9.5-9.5h-47.4c-5.2,0-9.5,4.2-9.5,9.5s4.2,9.5,9.5,9.5h24.5l-31.2,31.2c-3.7,3.7-3.7,9.7,0,13.4,3.7,3.7,9.7,3.7,13.4,0l31.2-31.2v24.5c0,5.2,4.2,9.5,9.5,9.5s9.5-4.2,9.5-9.5"/>
    <path class="st1" d="M208.5,62.2V14.8c0-5.2-4.2-9.5-9.5-9.5-5.2,0-9.5,4.2-9.5,9.5v24.5l-31.2-31.2c-3.7-3.7-9.7-3.7-13.4,0-3.7,3.7-3.7,9.7,0,13.4l31.2,31.2h-24.5c-5.2,0-9.5,4.2-9.5,9.5,0,5.2,4.2,9.5,9.5,9.5h47.4c5.2,0,9.5-4.2,9.5-9.5"/>
    <path class="st1" d="M356.4,62.2V14.8c0-5.2-4.2-9.5-9.5-9.5h-47.4c-5.2,0-9.5,4.2-9.5,9.5s4.2,9.5,9.5,9.5h37.9v37.9c0,5.2,4.2,9.5,9.5,9.5s9.5-4.2,9.5-9.5"/>
  </g>
  <g>
    <path class="st0" d="M36.6,72.1c-2.7,0-4.8-.8-6.3-2.3-1.5-1.5-2.2-3.6-2.2-6.4V19.5h-14.6c-2.3,0-4.1-.6-5.3-1.8s-1.8-2.9-1.8-5.2.6-4,1.8-5.2c1.2-1.2,3-1.8,5.3-1.8h46.4c2.3,0,4.1.6,5.3,1.8,1.2,1.2,1.8,2.9,1.8,5.2s-.6,4-1.8,5.2c-1.2,1.2-3,1.8-5.3,1.8h-14.6v43.9c0,2.7-.7,4.9-2.1,6.4-1.4,1.5-3.6,2.3-6.4,2.3Z"/>
    <path class="st0" d="M102.9,72.1c-2.4,0-4.3-.5-5.7-1.5-1.5-1-2.7-2.6-3.7-4.7l-22.5-49.7c-1-2.2-1.3-4.1-.9-5.9.4-1.7,1.2-3.1,2.6-4.1,1.4-1,3.1-1.4,5.1-1.4s4.5.6,5.7,1.7c1.3,1.1,2.4,2.8,3.3,4.9l19,44h-5.2l19-44c.9-2.2,2-3.8,3.4-4.9,1.3-1.1,3.1-1.6,5.5-1.6s3.5.5,4.8,1.4c1.3,1,2.1,2.3,2.5,4.1.3,1.7,0,3.7-1,5.9l-22.6,49.7c-.9,2.2-2.1,3.8-3.5,4.7-1.4,1-3.3,1.5-5.7,1.5Z"/>
  </g>
  <path class="st0" d="M337.7,93c-3.9,0-7.1-3.2-7.1-7.1s3.2-7.1,7.1-7.1,7.1,3.2,7.1,7.1-3.2,7.1-7.1,7.1M352.1,92c-3.4-2-4.6-6.3-2.6-9.8,2-3.4,6.3-4.6,9.7-2.6,3.4,2,4.6,6.3,2.6,9.7-2,3.4-6.3,4.6-9.7,2.6M343.1,107.6c-3.4-2-4.6-6.3-2.6-9.7,2-3.4,6.3-4.6,9.8-2.6,3.4,2,4.6,6.3,2.6,9.7-2,3.4-6.3,4.6-9.8,2.6"/>
</svg>